<?xml version="1.0" standalone="yes"?>
<svg xmlns="http://www.w3.org/2000/svg" width="640" height="640">
<path style="fill:#040404; stroke:none;" d="M0 0L0 640L640 640L640 0L0 0z"/>
<path style="fill:#a721a2; stroke:none;" d="M205 51L204 76L179 77L179 78L205 77L205 102L156 102L156 103L179 103L179 230L155 231L154 195L152.821 180.603L140 179L103 179L103 154L140 154L152.972 152.397L154 138L155 102L154 102C149.571 116.985 153 137.361 153 153L117 153L103.603 154.028L102 167L102 205L77 205L78 179L77 179L76 204L51 205L51 206L77 205L77 300C77 307.249 80.4541 327.816 74 332L74 333C79.0811 339.707 73.0883 349.539 76.6034 356.682C79.0673 361.689 97.0367 359 102 359L102 384L103 384L103 359L157 359L177.397 357.971L180.603 334.603L203.397 331.972L205 319L205 282L230 282L231.028 305.397L242 307L271 307L280.972 305.397L282 282C287.002 282 302.669 284.567 305.972 280.397C308.175 277.615 307 271.328 307 268L307 234L307 103L333 103L333 234C333 245.545 331.881 257.557 332.834 269C333.1 272.196 331.914 277.728 334.028 280.397C337.331 284.567 352.998 282 358 282C358 287.51 355.526 300.975 359.028 305.397C361.147 308.073 367.02 307 370 307L398 307C400.819 307.004 406.083 308.192 408.397 306.227C412.595 302.661 410 287.187 410 282L435 282C435 286.851 432.39 303.972 437.318 306.397C443.289 309.335 454.302 303.541 459.258 308.603C464.497 313.956 458.555 324.526 460.912 330.682C462.783 335.568 481.431 333 486 333L487.028 357.397L500 359L537 359L537 384L533 384L533 385C541.447 383.59 538 365.755 538 359C543.143 359 559.591 361.665 562.972 357.397C564.912 354.948 564 349.91 564 347C564 337.301 563.016 327.661 563 318C562.939 280.334 563 242.667 563 205L589 206L589 205L564 204L563 179L562 179L563 205C557.764 205 541.255 207.697 538.452 202.276C535.444 196.458 541.865 184.363 535.566 180.028C531.259 177.063 521.059 179 516 179C509.638 179 492.825 175.996 487.767 180.013C484.837 182.34 486.001 189.743 486 193L486 230L461 230L461 103L484 103L484 102L448 102L436.028 99.6821L435 77L462 79C456.501 73.3851 443.44 76 436 76L435 51L434 51L435 77L359 77L359 54L358 54L358 76C352.301 76 338.166 73.4142 333.603 77.0278C329.335 80.4086 332 96.8566 332 102L308 102C308 96.8567 310.665 80.4086 306.397 77.0278C301.834 73.4142 287.699 76 282 76L282 54L281 54L281 77L205 77L205 51z"/>
<path style="fill:#f4f2f3; stroke:none;" d="M205 77L281 77C281 72.1722 283.684 55.2264 280.168 52.0278C277.169 49.2986 267.823 51 264 51L222 51C218.071 51 209.85 49.4562 206.603 52.0278C202.335 55.4086 205 71.8566 205 77z"/>
<path style="fill:#a721a2; stroke:none;" d="M281.333 51.6667L281.667 52.3333L281.333 51.6667M358.333 51.6667L358.667 52.3333L358.333 51.6667z"/>
<path style="fill:#f4f2f3; stroke:none;" d="M359 77L435 77C435 71.8567 437.665 55.4086 433.397 52.0278C430.15 49.4562 421.929 51 418 51L376 51C372.177 51 362.831 49.2985 359.832 52.0278C356.316 55.2264 359 72.1722 359 77M180 103L205 102L205 77C199.301 77 185.166 74.4142 180.603 78.0278C176.436 81.3282 178.651 98.4351 180 103M282 77L282 102L307 102L307 77L282 77M333 77L333 102L358 102L358 77L333 77M435 77C435 82.5105 432.526 95.975 436.028 100.397C438.498 103.516 457.502 103.516 459.972 100.397C462.175 97.6154 461 91.328 461 88C461 85.1969 461.918 80.0248 459.397 78.0278C454.834 74.4142 440.699 77 435 77z"/>
<path style="fill:#bf0eca; stroke:none;" d="M207 78C205.112 84.3861 209.068 97.8589 203.682 102.397C198.253 106.971 185.058 99.8182 181.742 107.148C177.996 115.429 181 130.955 181 140C181 166.65 177.995 195.698 182.487 221.956C184.048 231.08 200.129 224.365 205.258 230.433C210.281 236.376 206.839 257.197 207 265C219.205 265.282 206.074 272.723 206 279C218.273 279 231.325 275.285 240 286L233 287C233 291.104 231.491 299.247 234.742 302.378C237.095 304.644 241.982 302.646 245 303.193C258.604 305.657 270.775 305.173 264 288L271 287L268 303C280.993 307.734 278.993 296.858 279 287L273 286L279 274L285 273C287.305 278.071 302.81 283.746 304.639 275.852C305.318 272.922 303.543 269.961 303.723 267C304.453 254.978 304 243.155 304 231C304 199.689 305 168.37 305 137C305 128.665 309.137 113.919 305.397 106.318C303.019 101.487 288.448 103.225 286 107C280.714 103.008 279.871 98.3894 280.015 92C280.092 88.5624 281.799 83.6028 278.562 81.1396C273.552 77.3264 263.879 79 258 79C241.881 79 222.719 81.7422 207 78M337 279C346.613 277.414 356.021 278.638 364 284L364 285C360.935 288.013 358.602 302.035 364.148 303.682C376.478 307.344 395.132 304.23 408 304L411 271C418.3 270.247 423.228 264.677 418 258L418 257C426.213 254.72 426.93 266.993 422.4 271.508C420.171 273.731 416.671 272.519 414 272L412 279C416.735 279.866 428.762 280.284 431.821 275.682C434.112 272.236 432.178 267.709 431.965 264C431.605 257.704 433.433 251.422 432.907 245C432.559 240.754 429.276 236.048 431.647 232.005C438.156 220.9 452.167 233.791 457.958 223.772C460.47 219.426 457.747 210.162 458.424 205C461.487 181.671 459 156.535 459 133C459 126.88 462.15 110.291 458.011 105.618C453.524 100.553 440.906 106.769 435.268 102.258C429.292 97.4768 437.662 87.121 432.394 81.8148C428.784 78.18 421.737 78.0218 417 78.0008C404.371 77.9448 391.692 79.0049 379 79C374.268 78.9982 367.504 77.1439 363.228 79.5764C355.278 84.1 364.441 97.0508 357.757 102.258C352.057 106.698 338.183 99.8757 334.894 107.148C329.733 118.555 334 140.507 334 153C334 184.665 333.75 216.456 335.91 248C336.621 258.381 334.037 268.786 337 279z"/>
<path style="fill:#f4f2f3; stroke:none;" d="M155 102L154 138L152.972 151.682L140 154L103 154L103 179L140 179L152.821 181.318L154 196L155 231L179 230L179 103L155 102M461 103L461 230L486 230L486 193C486.006 189.421 485.189 182.46 488.508 180.028C493.842 176.12 509.503 179 516 179C521.138 179 530.253 177.265 534.772 180.028C542.151 184.54 535.158 196.492 538.313 202.682C540.835 207.628 558.102 205 563 205C563 199.301 565.586 185.166 561.972 180.603C558.707 176.48 542.585 178.909 538 180L537 154L500 154L487.028 151.682L486 138L485 102L461 103z"/>
<path style="fill:#a721a2; stroke:none;" d="M485 102L486 103L485 102z"/>
<path style="fill:#f4f2f3; stroke:none;" d="M307 103L307 232L307 266C307 269.843 308.208 276.332 305.972 279.682C302.679 284.617 287.325 282 282 282C282 287.477 284.487 301.306 280.397 305.397C277.812 307.981 272.306 307 269 307L242 307C238.899 307 234.029 307.822 231.603 305.397C227.513 301.306 230 287.477 230 282L205 282L205 319L202.682 331.972L180.603 334.028L177.397 357.393L158 359L103 359L103 384L136 384C140.358 384 146.789 382.829 150.852 384.603C158.715 388.037 150.593 402.797 155.028 408.397C157.246 411.197 162.977 409.855 166 409.665C169.244 409.461 174.643 411.146 177.397 408.972C181.665 405.603 179 389.135 179 384C184.699 384 198.834 386.586 203.397 382.972C208.351 379.048 203.229 366.587 205.603 361.148C208.185 355.236 224.587 358 230 358L231.434 334.488L250 332.986L306 333C307.998 326.241 304.156 315.12 308.028 309.318C310.066 306.263 314.85 307.001 318 307C321.617 306.998 327.521 305.919 330.682 308.028C336.093 311.639 332.261 327.115 334 333L395 333L436 334C434.669 338.503 432.443 355.988 438.148 357.682C443.695 359.329 456.288 354.797 459.972 360.318C463.725 365.942 457.13 378.637 462.603 382.972C467.93 387.191 483.246 379.399 486.103 387.148C490.183 398.217 486.491 414.431 486.491 426C486.491 454.631 487 483.338 487 512C492.002 512 507.669 514.567 510.972 510.397C515.566 504.596 512 484.348 512 477L512 384L537 384L537 359L500 359L487.028 356.682L486 333C481.096 333 463.986 335.627 461.465 330.682C458.535 324.936 464.774 312.491 459.258 308.028C454.181 303.92 444.028 308.964 438.148 306.397C432.236 303.815 435 287.413 435 282L410 282C410 287.842 412.426 300.804 408.566 305.512C406.306 308.27 400.14 307 397 307L370 307C366.899 307 362.029 307.822 359.603 305.397C355.513 301.306 358 287.477 358 282C352.675 282 337.321 284.617 334.028 279.682C332.034 276.694 333.046 271.424 332.87 268C332.258 256.099 333 243.939 333 232L333 103L307 103z"/>
<path style="fill:#a721a2; stroke:none;" d="M486 103L486 153L487 153C487 138.951 491.409 115.89 486 103M296.333 112.667L296.667 113.333L296.333 112.667M487 153L487 154L537 154C524.11 148.591 501.049 153 487 153M537 154C537 160.499 534.104 176.178 540 180L537 154z"/>
<path style="fill:#f4f2f3; stroke:none;" d="M77 205L102 205L103 180C98.4351 178.651 81.3283 176.436 78.0278 180.603C74.4142 185.166 77 199.301 77 205z"/>
<path style="fill:#a721a2; stroke:none;" d="M548.667 179.333L549.333 179.667L548.667 179.333z"/>
<path style="fill:#bf0eca; stroke:none;" d="M204 283C199.198 283 184.63 286.36 181.344 284.264C177.074 281.54 178.226 275.231 177.83 271C176.654 258.432 177.035 244.699 177 232C171.941 232.535 161.701 234.483 157.093 233.129C150.784 231.274 151.364 223.984 151.83 219C152.63 210.45 152.001 201.585 152 193C152 190.304 152.77 185.879 150.972 183.603C149.146 181.292 143.693 181.426 141 181.17C130.91 180.209 119.033 180.439 109.044 182.147C98.9851 183.868 107.82 199.225 101.682 204.397C96.1054 209.095 83.4743 201.989 79.0278 207.603C75.0938 212.57 78 228.777 78 235C78 257.374 77.9753 279.694 78.9606 302C79.2515 308.585 77.6652 322.488 82.0324 327.682C87.3049 333.953 97.2747 327.335 102.848 332.319C109.34 338.124 100.374 349.036 105.618 354.393C108.37 357.203 118.058 355.959 121.83 355.883C134.53 355.63 147.291 356.004 160 356C163.719 355.999 171.395 357.385 174.693 355.676C181.412 352.194 171.215 334.882 181.058 329.863C186.693 326.989 197.942 333.425 202.382 329.958C204.934 327.965 203.341 319.925 203.196 317C202.644 305.841 204 294.26 204 283M462 232C464.104 249.019 464.735 270.575 458 286C445.878 280.862 435.79 281.978 436.407 297C436.493 299.105 435.868 301.701 436.781 303.681C439.238 309.015 455.841 303.853 460.952 307.144C469.079 312.378 459.683 320.912 464.117 327.397C465.466 329.371 469.841 329.751 472 330.29C474.827 330.996 478.96 331.632 481.243 329.258C483.918 326.475 482.102 322.16 485 319C486.533 323.422 489.706 330.539 489.945 335C490.275 341.141 485.539 345.237 493 349C486.509 359.551 517.572 356 524 356C526.858 356 532.003 356.932 534.382 354.972C539.175 351.023 532.205 337.718 535.103 332.409C539.279 324.756 557.205 335.904 560.633 328.678C561.983 325.833 560.376 321.073 560.402 318C560.47 310.018 561 302.016 561 294C561 265.083 559.904 235.799 562 207C555.278 205.013 543.863 208.832 538.318 204.258C533.043 199.907 537.726 189.816 533.911 184.148C529.446 177.517 509.235 181 502 181C499.202 181 495.071 180.298 492.649 182.028C484.151 188.098 488.001 210.053 488 219C488 222.68 488.95 228.737 485.566 231.303C482.187 233.866 466.838 231.999 462 232z"/>
<path style="fill:#a721a2; stroke:none;" d="M113 193L114 194L113 193z"/>
<path style="fill:#f4f2f3; stroke:none;" d="M77 332L77 205C71.8567 205 55.4086 202.335 52.0278 206.603C48.3155 211.29 51 226.154 51 232L51 304C51 310.223 48.0938 326.43 52.0278 331.397C55.5588 335.855 72.0447 332.92 77 332M563 205C563 246.524 567.4 290.781 563 332C567.497 333.329 584.747 335.447 587.972 331.396C591.908 326.452 589 310.205 589 304L589 232C589 226.154 591.685 211.29 587.972 206.603C584.591 202.335 568.143 205 563 205z"/>
<path style="fill:#a721a2; stroke:none;" d="M198 207L198 211C201.939 211.749 203.404 210.614 205 207L198 207M410 206L412 211L415 206L410 206M297.333 207.667L297.667 208.333L297.333 207.667M451 207C445.592 210.935 438.602 211.864 432 212C433.775 222.67 460.247 218.463 451 207M188 212L191 216L188 212M192 221L198 219L192 221M424 250L420 225C413.157 228.774 412.716 251.189 424 250z"/>
<path style="fill:#0a05db; stroke:none;" d="M458 228L459 229L458 228z"/>
<path style="fill:#f4f2f3; stroke:none;" d="M179 230L179 268L180.603 280.972L205 282L205 244L203.436 231.229L179 230M435 282L458.682 280.958L461 268L461 231C456.237 230.168 439.962 228.312 436.603 231.607C433.621 234.534 435.189 241.263 435.139 245C434.975 257.332 435 269.665 435 282z"/>
<path style="fill:#a721a2; stroke:none;" d="M168 242C171.036 241 171.494 240.137 171 237L168 242M466 239L466 240L474 241L474 239L466 239M297.333 241.667L297.667 242.333L297.333 241.667M342 241L343 242L342 241M248 246L247 250L250 246L248 246M297 248C295.911 250.816 295.516 252.119 298 254L297 248M341 248L343 257C343.531 253.405 344.144 250.337 341 248M288 251L289 252L288 251M355 251L358 254L355 251M237 256L237 257C241.156 258.419 244.133 258.979 245 254L237 256M356.667 256.333L357.333 256.667L356.667 256.333M410 257L410 258L414 258L410 257M288 264L287 271L293 268C296.19 273.178 300.455 271.324 302 266L288 264M340 272C351.44 269.526 338.805 258.389 340 272M358 272C360.484 259.917 346.716 268.84 358 272M169 265L168 267L170 267L169 265M240 270L240 272L242 272L242 270L240 270M366 270L368 274L368 270L366 270z"/>
<path style="fill:#0a05db; stroke:none;" d="M431 279L432 280L431 279z"/>
<path style="fill:#040404; stroke:none;" d="M432.667 279.333L433.333 279.667L432.667 279.333z"/>
<path style="fill:#a721a2; stroke:none;" d="M168 280L167 284L168 280z"/>
<path style="fill:#0a05db; stroke:none;" d="M232 285L233 286L232 285z"/>
<path style="fill:#a721a2; stroke:none;" d="M250.667 288.333L251.333 288.667L250.667 288.333M444 288L444 291L446 291L446 288L444 288M367 289C363.262 294.393 366.168 296.94 372 298L367 289M241 294L246 297L241 294M444 294L444 300L446 300L446 294L444 294M250 295L251 299L254 298L254 296L250 295M377 298L380 298L379 296L377 298M400 297L401 298L400 297M404.667 298.333L405.333 298.667L404.667 298.333z"/>
<path style="fill:#0a05db; stroke:none;" d="M232.333 304.667L232.667 305.333L232.333 304.667M360 305L361 306L360 305z"/>
<path style="fill:#a721a2; stroke:none;" d="M306 333C288.556 330.224 268.765 333.414 251 332.985C246.355 332.873 235.395 330.552 231.603 333.773C227.405 337.339 230 352.812 230 358C225.149 358 208.028 355.39 205.603 360.318C202.632 366.356 208.462 377.331 203.397 382.397C199.196 386.597 184.642 384 179 384C179 390.027 181.393 402.567 177.972 407.682C175.728 411.039 171.267 409.338 168 409.34C164.384 409.341 159.624 411.177 156.318 408.972C151.383 405.682 154 390.323 154 385L153 385L153 409L128 409L128 410L153 410L153 497L154 538L155 538L154 498L155 433C161.48 437.15 172.417 435 180 435L240 435L405 435C430.015 435 460.681 439.79 485 434C489.102 451.23 486 472.302 486 490C486 496.218 487.873 505.887 484 511L484 512C487.661 516.833 487.661 532.167 484 537L484 538C488.963 536.936 487 528.189 487 524L487 482L487 414C487 406.352 489.499 393.142 486.5 386.111C483.938 380.105 468.054 386.354 463.111 383.278C456.482 379.151 464.458 364.888 460.278 359.333C456.788 354.697 443.157 359.574 438.028 357.667C432.713 355.691 434.764 338.597 436 334L399 333L334 333C332.506 326.725 335.873 313.528 331.972 308.603C329.372 305.32 309.512 305.439 307.603 309.318C304.481 315.664 307.68 325.942 306 333M467 310L467 312C474.796 315.511 475.298 306.741 467 310M481 310L483 315L488 309L481 310z"/>
<path style="fill:#bf0eca; stroke:none;" d="M314 316L327 317L319 323L319 324L322 328C315.365 330.365 309.243 334.857 302 335.772C279.661 338.596 253.689 330.058 232 336C233.537 342.004 235.9 360.016 226.956 361.512C221.939 362.352 211.758 358.628 207.618 362.028C203.24 365.624 208.761 378.568 205.127 383.772C200.411 390.526 190.378 383.887 184.318 388.024C179.043 391.624 181.999 405.517 182 411L190 411L190 412L165 415L165 411L156 411L157 432L164 431C167.264 435.475 178.734 433 184 433L242 433C322.322 433 402.798 433.212 483 433C483.007 422.754 484.091 412.401 484.433 402.09C484.569 397.987 483.674 389.867 479.672 387.514C474.756 384.623 469.937 387.734 465 387.061C458.786 386.214 457.521 381.245 451 385L451 378L457 380C457.722 377.704 458.548 375.455 458.505 373.013C458.459 370.319 458.613 363.592 456.396 361.786C451.306 357.64 441.396 364.604 436.124 360.304C428.9 354.412 436.879 344.828 430.487 338.699C424.37 332.834 414.516 334.877 407 335.5C391.338 336.797 374.729 336 359 336C350.977 336 342.679 336.884 335 334.27C329.874 332.525 325.941 330.684 331 326C330.27 322.067 331.951 313.56 329.243 310.742C326.481 307.868 311.106 307.89 309.913 312.148C309.149 314.873 308.427 323.184 310.032 325.566C311.756 328.124 316.038 328.163 316.882 324.851C317.639 321.879 315.185 318.569 314 316z"/>
<path style="fill:#a721a2; stroke:none;" d="M84 311L86 313L86 311L84 311M87.3333 311.667L87.6667 312.333L87.3333 311.667M197 312L197 313L201 315L202 311L197 312M91.6667 312.333L92.3333 312.667L91.6667 312.333M531 312L533 314L533 312L531 312M553 319L555 322L553 319M471 320L472 326L473 326L471 320M200 324L199 326L200 324M554 324L555 325L554 324M111 327C108.757 331.662 108.757 335.338 111 340C114.202 336.285 115.33 330.147 111 327M169 327C168.298 330.63 168.853 332.911 172 335L173 328L169 327z"/>
<path style="fill:#0a05db; stroke:none;" d="M78.6667 329.333L79.3333 329.667L78.6667 329.333M330 329L331 332L330 329z"/>
<path style="fill:#040404; stroke:none;" d="M78 330L81 332L78 330z"/>
<path style="fill:#0a05db; stroke:none;" d="M81 330L82 331L81 330z"/>
<path style="fill:#a721a2; stroke:none;" d="M589 331L590 332L589 331M51 332L52 333L51 332M580.667 332.333L581.333 332.667L580.667 332.333M588 332L589 333L588 332z"/>
<path style="fill:#f4f2f3; stroke:none;" d="M77 333L77 358L102 358L102 333L77 333M538 333L538 358L563 358L563 333L538 333z"/>
<path style="fill:#0a05db; stroke:none;" d="M432 334L433 335L432 334z"/>
<path style="fill:#a721a2; stroke:none;" d="M422 353L422 342C410.371 337.885 411.429 357.395 422 353M170 341C158.488 346.805 175.117 353.797 170 341M239 341L240 351C244.97 347.949 244.418 343.073 239 341M335 344C339.075 344.328 342.518 344.608 345 341C341.013 341.003 337.332 340.402 335 344M254 342L254 344L256 344L256 342L254 342M324 342L324 343L327 343L324 342M365 343L365 344L369 343L365 343M399 342L399 344L402 344L402 342L399 342M112 344L112 348L124 350L123 343L112 344M287 345C289.916 352.277 305.548 351.155 308 344L287 345M239 352L239 354L241 354L241 352L239 352M329 353L328 357L335 357L329 353M358 356L358 357L368 358C366.956 351.746 362.349 353.567 358 356M427 353L428 354L427 353M312 362L315 360C318.832 362.516 326.229 362.881 326 357L312 362M237 368L243 368L241 362L237 368M410 368L417 367L416 363L410 368M213 367L219 367C216.546 364.703 215.454 364.703 213 367M424 368L431 368C428.741 364.472 426.103 364.315 424 368M433 367L433 368L441 368L440 364L433 367M450 365L449 366L450 371C453.472 369.025 453.472 366.975 450 365M226 366L226 368L229 368L229 366L226 366M104 384L104 385L107 385L104 384M108 384L108 385L136 385L108 384M137 384L137 385L140 385L137 384M141 384L141 385L150 385L141 384M152 384L153 385L152 384M512 384L513 385L512 384M516 384L516 385L528 385L516 384M530 384L531 385L530 384M512 386L513 387L512 386M451 388L451 395L455 394L453 388L451 388M512 388L512 507L513 507L513 424L512 388M198 392C195.162 396.776 193.06 400.949 187 401C188.966 412.322 209.465 404.223 198 392M464 392L466 395L466 392L464 392M464 404C466.013 404.256 467.998 404.61 470.005 404.916C488.223 407.697 466.579 388.203 464 404M451 402L452 409L454 409C455.581 405.153 455.09 403.253 451 402z"/>
<path style="fill:#f4f2f3; stroke:none;" d="M128 410L128 484C128 490.034 125.205 505.569 129.028 510.397C132.331 514.567 147.998 512 153 512L153 410L128 410z"/>
<path style="fill:#a721a2; stroke:none;" d="M455 411L456 415L460 414C459 410.964 458.137 410.506 455 411M468 414C472.211 414.991 475.224 415.419 477 411C472.928 409.81 469.487 409.52 468 414M127.333 411.667L127.667 412.333L127.333 411.667M191 411L194 413L191 411M198 411L198 412L204 411L198 411M206.667 411.333L207.333 411.667L206.667 411.333M163 414L164 415L163 414M127 416L127 496L128 496L128 441L127 416M161 416C161.061 421.153 162.268 425.724 168.001 427.127C173.284 428.42 180.509 427 186 427L227 427L379 427L426 427C433.723 427 442.565 428.198 450 426L450 425C442.565 422.802 433.722 424 426 424L380 424L230 424L180 424C171.863 424 163.564 426.395 163 416L161 416M451 426L460 427L460 424L451 426M469 424L469 426L478 426C475.142 423.092 472.893 423.118 469 424z"/>
<path style="fill:#0a05db; stroke:none;" d="M155 433C151.568 451.488 154 472.214 154 491C154 495.53 151.964 506.757 155.028 510.357C159.507 515.621 173.007 506.921 178.397 513.318C183.273 519.106 175.913 531.303 182.573 535.972C188.146 539.88 198.38 533.586 203.397 538.603C208.533 543.74 200.462 559.023 207.318 562.397C212.656 565.023 223.111 563 229 563L281 563C281 557.542 278.284 541.387 283.318 538.028C286.683 535.782 293.141 537.022 296.999 536.999C299.921 536.982 303.345 535.982 306 537L307 537C307 531.07 304.594 518.422 308.028 513.434C310.9 509.261 329.1 509.261 331.972 513.434C335.178 518.091 333 529.485 333 535L359 539L361 562L359 562L359 563L413 563C417.897 563 429.418 565.124 433.397 561.972C438.751 557.732 432.573 545.142 435.452 539.573C438.849 533.003 452.446 539.808 457.682 535.397C463.036 530.886 458.255 520.873 460.603 515.059C463.233 508.546 478.365 511.099 484 512L486 511L486 460L485 434C459.398 438.753 430.039 435 404 435L244 435L182 435C173.627 435 162.511 437.051 155 433z"/>
<path style="fill:#a721a2; stroke:none;" d="M127 497L127 506L128 506L127 497M512.333 508.667L512.667 509.333L512.333 508.667M127 509L128 510L127 509z"/>
<path style="fill:#040404; stroke:none;" d="M484 510L485 511L484 510z"/>
<path style="fill:#a721a2; stroke:none;" d="M128 511L129 512L128 511M158 511L158 512L178 512L158 511M309 511L309 512L331 512L309 511M460 537C452.56 537 439.499 534.385 434 540C447.569 534.25 468.361 538 483 538L483 537L461 537C461 524.377 457.161 512.002 473 512C456.293 504.99 460 527.272 460 537M474 511L475 512L474 511M479 511L479 512L483 512L479 511M511 511L512 512L511 511M129 512L129 513L132 513L129 512M134 512L134 513L150 513L134 512z"/>
<path style="fill:#f4f2f3; stroke:none;" d="M154 512L155 538L179 537L179 512L154 512z"/>
<path style="fill:#a721a2; stroke:none;" d="M307 512L308 513L307 512z"/>
<path style="fill:#f4f2f3; stroke:none;" d="M307 537L333 537C333 532.186 335.544 516.098 331.372 512.988C328.506 510.852 322.373 512 319 512C316.02 512 310.147 510.927 308.028 513.603C304.526 518.025 307 531.49 307 537z"/>
<path style="fill:#a721a2; stroke:none;" d="M332 512L333 513L332 512z"/>
<path style="fill:#f4f2f3; stroke:none;" d="M461 537L484.972 536.168L486 512C480.998 512 465.331 509.433 462.028 513.603C458.526 518.025 461 531.49 461 537z"/>
<path style="fill:#a721a2; stroke:none;" d="M490.667 512.333L491.333 512.667L490.667 512.333M493 512L493 513L507 513L493 512M508 512L508 513L511 513L508 512M179 513L179 537L157 537L157 538L205 539L205 538L180 537L179 513M332 516L333 517L332 516z"/>
<path style="fill:#040404; stroke:none;" d="M180 534L182 537L180 534M334 534L333 535L336 537L334 534M459 534L457 537C459.251 536.527 460.118 536.14 459 534M304 535L304 537L306 537L306 535L304 535z"/>
<path style="fill:#0a05db; stroke:none;" d="M333 536L334 537L333 536z"/>
<path style="fill:#a721a2; stroke:none;" d="M281 586L282 586L282 564C287.699 564 301.834 566.586 306.397 562.972C310.665 559.591 308 543.143 308 538L332 538C332 543.699 329.414 557.834 333.028 562.397C336.409 566.665 352.857 564 358 564L358 589C362.308 578.734 359 561.158 359 550C359 546.849 360.216 540.261 357.397 538.028C354.779 535.954 349.121 537 346 537L318 537L292 537C289.197 537 284.025 536.082 282.028 538.603C279.699 541.543 281 548.469 281 552L281 586z"/>
<path style="fill:#f4f2f3; stroke:none;" d="M179 538C179 543.326 176.674 557.162 180.028 561.397C183.409 565.665 199.857 563 205 563C205 557.49 207.474 544.025 203.972 539.603C200.591 535.335 184.143 538 179 538M282 538L282 563L307 563L307 538L282 538M333 538L333 563L358 563L358 538L333 538M461 538C455.301 538 441.166 535.414 436.603 539.028C434.082 541.025 435 546.197 435 549C435 552.328 433.825 558.615 436.028 561.397C438.498 564.516 457.502 564.516 459.972 561.397C463.474 556.975 461 543.51 461 538z"/>
<path style="fill:#a721a2; stroke:none;" d="M179 549L180 550L179 549z"/>
<path style="fill:#040404; stroke:none;" d="M359.667 561.333L360.333 561.667L359.667 561.333M433 561L434 562L433 561z"/>
<path style="fill:#a721a2; stroke:none;" d="M179 562L180 563L179 562M205 562L180 563L180 564L204 564L205 589L206 589L205 562M434 562C435.988 570.351 436.371 582.043 433 590C438.615 584.501 436 571.44 436 564L460 564L460 563L434 562M460 562L461 563L460 562z"/>
<path style="fill:#f4f2f3; stroke:none;" d="M281 563L248 563C237.454 563 216.753 558.961 207.318 563.603C203.439 565.512 203.321 585.372 206.603 587.972C209.85 590.544 218.071 589 222 589L264 589C267.823 589 277.169 590.701 280.168 587.972C283.684 584.774 281 567.828 281 563M359 563L359 589L415 589L433.972 587.397L435 563L359 563z"/>
<path style="fill:#a721a2; stroke:none;" d="M281.333 587.667L281.667 588.333L281.333 587.667M360 589L361 590L360 589z"/>
</svg>
